<svg width="252" height="252" viewBox="0 0 252 252" fill="none" xmlns="http://www.w3.org/2000/svg">
<circle cx="126" cy="126" r="126" fill="#24A136"/>
<path d="M0 119H126V252H45C20.1472 252 0 231.853 0 207V119Z" fill="#24A136"/>
<path d="M233.156 58.6719C227.298 50.026 216.537 37.2041 208.5 30.5C207.38 31.5739 203.803 35.4374 202.575 36.6002C202.37 36.6823 202.272 36.6718 202.243 36.6538C202.101 36.991 201.901 37.3293 201.419 37.7486C201.262 37.7939 201.181 37.7744 201.15 37.7485C201.016 38.0861 200.808 38.4162 200.33 38.8186C200.035 38.8975 200.03 38.7891 200.078 38.8142C197.104 41.9931 194.082 45.1469 190.723 48.4299C190.509 48.5122 190.416 48.5068 190.388 48.492C190.263 48.8446 190.088 49.1991 189.634 49.6435C189.474 49.695 189.394 49.6767 189.365 49.6517C189.214 49.9719 188.991 50.2851 188.496 50.6626C188.2 50.7324 188.195 50.6369 188.239 50.656C183.506 55.6696 178.729 60.6641 173.614 65.7825C173.398 65.8612 173.304 65.8532 173.277 65.8366C173.146 66.183 172.964 66.5324 172.504 66.9711C172.345 67.0222 172.265 67.0045 172.237 66.9798C172.087 67.3024 171.868 67.6182 171.376 68.0005C171.21 68.0412 171.141 68.0339 171.117 68.0249L170.096 69.073C160.356 79.0786 150.617 89.0836 140.813 99.0228C131.148 108.82 121.411 118.543 111.369 128.424C110.538 129.213 110.043 129.877 109.247 130.641C108.576 131.228 108.205 131.716 107.532 132.279C107.229 132.353 107.053 132.357 107.133 132.395C107.196 132.781 107.046 133.055 106.542 133.352C104.841 136.451 103.266 136.04 101.497 133.28C100.426 132.061 99.4942 131.144 98.4628 129.908C98.3634 129.589 98.2767 129.6 98.2819 129.556C93.3363 124.737 88.3855 119.963 83.3327 114.84C78.1913 109.685 73.3318 104.667 68.0781 100.116C54.1433 88.0426 31.9319 95.8616 27.1607 113.749C23.9881 125.644 27.4198 134.272 36.2242 141.919C41.4714 146.477 46.0741 151.795 51.1235 157.085C51.649 157.456 51.9529 157.628 52.3117 158.158C53.3712 159.278 54.3114 160.158 55.399 161.326C55.9026 161.875 56.2588 162.136 56.7086 162.721C56.7528 162.875 56.7398 162.959 56.7168 162.995C57.0678 163.116 57.3972 163.315 57.8059 163.784C57.8928 164.078 57.7148 164.089 57.7916 164.043C58.4612 164.514 59.054 165.031 59.7606 165.829C60.9005 167.045 61.9264 167.98 63.1007 169.234C63.886 170.042 64.5229 170.53 65.2531 171.312C65.3154 171.508 65.2996 171.621 65.2804 171.654C65.6056 171.786 65.9386 171.987 66.3511 172.471C66.4001 172.645 66.3707 172.739 66.3386 172.77C66.6747 172.913 67.0143 173.138 67.4637 173.637C67.8935 173.909 68.1348 174.026 68.3561 174.494C69.0833 175.29 69.7619 175.88 70.5402 176.8C70.6029 177.008 70.5829 177.106 70.5591 177.136C70.8869 177.276 71.2182 177.481 71.6323 177.964C71.7204 178.259 71.6095 178.259 71.637 178.21C75.26 181.562 78.8556 184.962 82.6162 188.705C84.2836 190.289 85.786 191.53 87.4335 193.07C87.9458 193.539 88.3131 193.708 88.7891 194.173C88.8342 194.296 88.8365 194.363 88.8269 194.395C91.9363 195.627 95.0026 196.916 98.2466 198.553C98.4252 198.903 98.8761 198.888 99.0924 198.953C100.008 199.094 100.707 199.171 101.571 199.596C101.737 199.945 102.147 199.905 102.331 200C111.826 197.687 120.033 194.16 127.248 186.761C164.379 148.681 202.113 111.203 239.645 73.524C239.884 73.2846 240.247 72.9827 241 72.5C238.698 67.6103 236.145 63.0846 233.156 58.6719Z" fill="white"/>
</svg>
